# xmcd
#
# Track frame offsets: 
#        150
#        8582
#        25650
#        40440
#        55964
#        71876
#        75355
#        86246
#        105551
#        125164
#        142357
#        148091
#
# Disc length: 2159 seconds
#
# Revision: 0
# Processed by: cddbd v1.5.2PL0 Copyright (c) Steve Scherf et al.
# Submitted via: ExactAudioCopy v1.3
#
DISCID=ad086d0c
DTITLE=THE人生ズ - ライブ～人生の35分間～
DYEAR=2018
DGENRE=Blues
TTITLE0=ワチュノー
TTITLE1=いってらっしゃい
TTITLE2=ハワイ
TTITLE3=ぼいんぼいん
TTITLE4=ガイコツ
TTITLE5=酔いどれ人生（つまづきＶｅｒ）
TTITLE6=酔いどれ人生
TTITLE7=山
TTITLE8=海賊
TTITLE9=まちかどブルース
TTITLE10=まんぷく
TTITLE11=人生図
EXTD=
EXTT0=
EXTT1=
EXTT2=
EXTT3=
EXTT4=
EXTT5=
EXTT6=
EXTT7=
EXTT8=
EXTT9=
EXTT10=
EXTT11=
PLAYORDER=
